<?xml version="1.0" encoding="UTF-8"?>
<svg version="1.1" xmlns="http://www.w3.org/2000/svg" width="34" height="36">
<path d="M0 0 C2.5215021 -0.08172936 5.04029917 -0.14083373 7.5625 -0.1875 C8.26697266 -0.21263672 8.97144531 -0.23777344 9.69726562 -0.26367188 C14.88144374 -0.33534254 18.41830292 0.52137699 23 3 C25 6 25 6 24.9375 9.375 C23.84501759 13.59926533 22.28597022 15.21956366 19 18 C19.66 18.515625 20.32 19.03125 21 19.5625 C23 22 23 22 23.5 25.4375 C22.92039509 29.567185 21.96306759 31.11923984 19 34 C15.78714064 36.00520734 13.33437119 36.23704857 9.578125 36.1953125 C8.04091797 36.18564453 8.04091797 36.18564453 6.47265625 36.17578125 C5.40917969 36.15902344 4.34570312 36.14226563 3.25 36.125 C1.63158203 36.11146484 1.63158203 36.11146484 -0.01953125 36.09765625 C-2.67991278 36.07411305 -5.33984336 36.04122799 -8 36 C-8 35.01 -8 34.02 -8 33 C-7.38125 32.95875 -6.7625 32.9175 -6.125 32.875 C-5.42375 32.58625 -4.7225 32.2975 -4 32 C-2.6954344 29.00384054 -2.6954344 29.00384054 -2 26 C-2.99 26.66 -3.98 27.32 -5 28 C-5.66 26.68 -6.32 25.36 -7 24 C-6.05125 23.29875 -5.1025 22.5975 -4.125 21.875 C-1.00145374 19.30396782 0.07381296 16.98260427 1 13 C1.66 13 2.32 13 3 13 C3 9.7 3 6.4 3 3 C2.01 3 1.02 3 0 3 C0 2.01 0 1.02 0 0 Z M11 3 C10.34 4.98 9.68 6.96 9 9 C10.32 9 11.64 9 13 9 C13.33 9.66 13.66 10.32 14 11 C12.02 11.99 10.04 12.98 8 14 C8 14.33 8 14.66 8 15 C13.02671047 15.43076581 13.02671047 15.43076581 17.4375 13.3125 C19.15453424 11.09598847 19.15453424 11.09598847 19.5 8.4375 C19.20367625 5.88699798 19.20367625 5.88699798 17.25 4.1875 C14.83443376 2.68882759 14.83443376 2.68882759 11 3 Z M8 18 C9 20 9 20 9 20 Z M10 19 C10.99 20.98 11.98 22.96 13 25 C12.01 25.33 11.02 25.66 10 26 C9.62875 25.175 9.2575 24.35 8.875 23.5 C8.25625 22.675 7.6375 21.85 7 21 C3.87364791 20.58253392 3.87364791 20.58253392 1 21 C1 21.33 1 21.66 1 22 C2.65 22 4.3 22 6 22 C6 25.63 6 29.26 6 33 C9.73353364 32.7128051 12.32404139 32.46797134 15.4375 30.3125 C17.47462614 27.29755331 17.53180853 25.57071442 17 22 C15.87359395 20.03959519 15.87359395 20.03959519 14 19 C12.68 19 11.36 19 10 19 Z " fill="#E3ADCD" transform="translate(9,0)"/>
<path d="M0 0 C2.5215021 -0.08172936 5.04029917 -0.14083373 7.5625 -0.1875 C8.26697266 -0.21263672 8.97144531 -0.23777344 9.69726562 -0.26367188 C14.88144374 -0.33534254 18.41830292 0.52137699 23 3 C25 6 25 6 24.9375 9.4375 C23.8398083 13.60872846 22.56393264 14.7154278 19 17 C18.67 16.34 18.34 15.68 18 15 C17.01 14.67 16.02 14.34 15 14 C15.495 13.608125 15.99 13.21625 16.5 12.8125 C18.21841684 11.05545568 18.21841684 11.05545568 18.375 8.4375 C18.25125 7.633125 18.1275 6.82875 18 6 C15.04622502 3.63019987 15.04622502 3.63019987 11 4 C10.34 5.65 9.68 7.3 9 9 C10.32 8.34 11.64 7.68 13 7 C13.66 8.32 14.32 9.64 15 11 C13.25 12.5625 13.25 12.5625 11 14 C8.83031791 13.75203633 7.55766393 13.55766393 6 12 C5.85884839 9.32941149 5.95752893 6.67567762 6 4 C3.03 3.505 3.03 3.505 0 3 C0 2.01 0 1.02 0 0 Z " fill="#E3ACCA" transform="translate(9,0)"/>
<path d="M0 0 C0.99 0 1.98 0 3 0 C2.93489583 2.01822917 2.86979167 4.03645833 2.8046875 6.0546875 C2.81668311 8.23863645 2.81668311 8.23863645 5 10 C7.43252661 10.46162427 7.43252661 10.46162427 10.125 10.625 C11.03507812 10.69976562 11.94515625 10.77453125 12.8828125 10.8515625 C13.93082031 10.92503906 13.93082031 10.92503906 15 11 C15 12.32 15 13.64 15 15 C12.69 15.33 10.38 15.66 8 16 C8.99 17.65 9.98 19.3 11 21 C9.02 21.99 9.02 21.99 7 23 C4 19.25 4 19.25 4 17 C3.030625 17.020625 2.06125 17.04125 1.0625 17.0625 C-2 17 -2 17 -3 16 C-3.04080783 14.00041636 -3.04254356 11.99954746 -3 10 C-2.01 9.67 -1.02 9.34 0 9 C0 6.03 0 3.06 0 0 Z M5 14 C6 16 6 16 6 16 Z " fill="#D55122" transform="translate(12,4)"/>
<path d="M0 0 C2.64 0 5.28 0 8 0 C8 1.32 8 2.64 8 4 C5.69 4.33 3.38 4.66 1 5 C1.99 6.65 2.98 8.3 4 10 C2.02 10.99 2.02 10.99 0 12 C-1.625 10.375 -1.625 10.375 -3 8 C-2.3007918 5.08663251 -1.33508269 2.67016539 0 0 Z " fill="#D75D39" transform="translate(19,15)"/>
<path d="M0 0 C1.9375 0.25 1.9375 0.25 4 1 C4.66 1.99 5.32 2.98 6 4 C5.34 4.66 4.68 5.32 4 6 C3.3574765 8.06874034 3.3574765 8.06874034 3 10 C0.36 10 -2.28 10 -5 10 C-5 8.68 -5 7.36 -5 6 C-3.02 5.67 -1.04 5.34 1 5 C0.34 3.68 -0.32 2.36 -1 1 C-0.67 0.67 -0.34 0.34 0 0 Z " fill="#D55123" transform="translate(5,8)"/>
<path d="M0 0 C1.32 0 2.64 0 4 0 C4 3.63 4 7.26 4 11 C2.68 11 1.36 11 0 11 C0 7.37 0 3.74 0 0 Z " fill="#D6572F" transform="translate(11,22)"/>
<path d="M0 0 C0.99 0.99 1.98 1.98 3 3 C1.35 4.98 -0.3 6.96 -2 9 C-2.99 8.34 -3.98 7.68 -5 7 C-3.70700306 4.11562221 -2.34058637 2.12780579 0 0 Z " fill="#D65123" transform="translate(7,19)"/>
<path d="M0 0 C1.875 0.25 1.875 0.25 4 1 C5.25 3.0625 5.25 3.0625 6 5 C4.02 5.99 4.02 5.99 2 7 C0.4375 5.1875 0.4375 5.1875 -1 3 C-0.67 2.01 -0.34 1.02 0 0 Z " fill="#D55022" transform="translate(17,20)"/>
<path d="M0 0 C0.99 1.32 1.98 2.64 3 4 C1.25 5.5625 1.25 5.5625 -1 7 C-3.25 6.6875 -3.25 6.6875 -5 6 C-3.63016497 2.83884224 -3.0109362 2.0072908 0 0 Z " fill="#D65022" transform="translate(21,7)"/>
</svg>
